Coordinates
version=1
nRows=29
nColumns=24
inDegrees=yes

Units are S.I. units (second, meters, Newtons, ...)
Angles are in degrees.

endheader
time	pelvis_tilt	pelvis_list	pelvis_rotation	pelvis_tx	pelvis_ty	pelvis_tz	hip_flexion_r	hip_adduction_r	hip_rotation_r	knee_angle_r	ankle_angle_r	subtalar_angle_r	mtp_angle_r	hip_flexion_l	hip_adduction_l	hip_rotation_l	knee_angle_l	ankle_angle_l	subtalar_angle_l	mtp_angle_l	lumbar_extension	lumbar_bending	lumbar_rotation
      1.10466667	     -0.26285139	     -2.22516351	     -1.18508830	     -0.16098656	      1.04984055	      0.35767807	    -13.90326509	      8.26782282	     -2.45646256	     -4.94677904	     11.08371223	     -7.83230199	     -2.87314569	     21.00945388	     -0.20107880	     -6.72014336	      2.01267524	      5.61949913	      2.69528358	      4.31301408	      3.90176601	      5.51122005	      0.14774971
      1.10883333	     -0.26266127	     -2.22859328	     -1.22584837	     -0.15536229	      1.04910482	      0.35762931	    -14.01943185	      8.24602786	     -2.39629662	     -5.38718501	     11.10117811	     -7.88550818	     -2.87614728	     20.99055098	     -0.13215858	     -6.59287712	      1.94576579	      5.60922694	      2.75656505	      4.29314544	      3.91930642	      5.48962103	      0.14902755
      1.11300000	     -0.25572803	     -2.22468856	     -1.25360873	     -0.14969074	      1.04839811	      0.35760645	    -14.13876928	      8.21877411	     -2.31783189	     -5.84085375	     11.14835642	     -7.94248414	     -2.87839290	     20.96898775	     -0.06050100	     -6.41858145	      1.80099622	      5.58214637	      2.83080530	      4.27426501	      3.93979103	      5.45562700	      0.15727754
      1.11716667	     -0.23754678	     -2.22173212	     -1.27131072	     -0.14399083	      1.04772177	      0.35758841	    -14.26092716	      8.19341096	     -2.23458169	     -6.31704436	     11.20881325	     -8.00169100	     -2.88009083	     20.94187942	      0.00718229	     -6.22185527	      1.58022704	      5.53869312	      2.90300331	      4.25583067	      3.95570138	      5.41630154	      0.17036137
      1.12133333	     -0.21646418	     -2.21283471	     -1.28694541	     -0.13824361	      1.04708825	      0.35759281	    -14.37430589	      8.16149514	     -2.15391771	     -6.82094771	     11.26931555	     -8.05842974	     -2.88126433	     20.91180864	      0.07613890	     -6.01364951	      1.29570203	      5.47437944	      2.96659929	      4.23761311	      3.96019300	      5.37376603	      0.18680752
      1.12550000	     -0.19432572	     -2.20259700	     -1.30222044	     -0.13246050	      1.04647720	      0.35760678	    -14.47747129	      8.12443796	     -2.08091701	     -7.34924881	     11.31411623	     -8.10319990	     -2.88173035	     20.88252813	      0.14088852	     -5.80604736	      0.95337377	      5.38907235	      3.01468679	      4.22126369	      3.96483433	      5.32838557	      0.20581507
      1.12966667	     -0.16131150	     -2.19081102	     -1.32788585	     -0.12665610	      1.04591945	      0.35765262	    -14.57437895	      8.07970011	     -2.01891522	     -7.91243490	     11.33619345	     -8.13162730	     -2.88140527	     20.83810082	      0.19826443	     -5.60260151	      0.56777916	      5.28461895	      3.04943005	      4.20790514	      3.97276837	      5.28026268	      0.22605224
      1.13383333	     -0.15316020	     -2.19155478	     -1.29828527	     -0.12087874	      1.04533300	      0.35760625	    -14.62135373	      8.05805123	     -2.03240780	     -8.51759567	     11.45741868	     -8.14775199	     -2.87832480	     20.82591915	      0.26036590	     -5.23472028	      0.15412672	      4.96761375	      3.03448829	      4.16226040	      3.83707743	      5.26070849	      0.27572878
      1.13800000	     -0.08754708	     -2.17425799	     -1.33624506	     -0.11500668	      1.04490735	      0.35768192	    -14.72113809	      7.99563002	     -1.99166489	     -9.14943701	     11.41355040	     -8.13345140	     -2.87663861	     20.73697969	      0.30984553	     -5.08222697	     -0.29455327	      4.86240362	      3.01464549	      4.15160701	      3.91322887	      5.20791564	      0.29909314
      1.14216667	     -0.08421876	     -2.16470092	     -1.33921888	     -0.10917255	      1.04441855	      0.35756386	    -14.70060860	      7.92997605	     -2.17555697	     -9.87305532	     11.37835633	     -7.93020730	     -2.86319160	     20.71127158	      0.37634121	     -4.74581718	     -0.72777164	      4.33521852	      2.78142408	      4.09681470	      3.75406279	      5.18667650	      0.37130952
      1.14633333	     -0.00083641	     -2.13949464	     -1.37753502	     -0.10324939	      1.04410803	      0.35768110	    -14.78555750	      7.85279273	     -2.14008213	    -10.56925190	     11.31770997	     -7.89071302	     -2.85946812	     20.58705857	      0.42180582	     -4.59151482	     -1.20579845	      4.22775799	      2.74078754	      4.08899673	      3.86814679	      5.11796591	      0.39751046
      1.15050000	      0.05942562	     -2.04475963	     -1.35969880	     -0.09709084	      1.04381589	      0.35724686	    -14.79117759	      7.64395316	     -2.64084506	    -11.37585456	     11.29256185	     -7.00362709	     -2.78676742	     20.40904352	      0.61916323	     -3.96837216	     -1.50792103	      3.28205354	      1.71745474	      3.97893876	      3.89001952	      5.12707714	      0.56511754
      1.15466667	      0.11952580	     -2.03349383	     -1.40301201	     -0.09121887	      1.04356893	      0.35734921	    -14.79138478	      7.56947428	     -2.63241058	    -12.18297396	     11.21653372	     -6.99346052	     -2.78100230	     20.30907428	      0.63874425	     -3.84046691	     -2.01307072	      3.19605315	      1.68394503	      3.97362571	      3.90811910	      5.00609637	      0.58180299
      1.15883333	      0.11909597	     -1.96113879	     -1.37794932	     -0.08513212	      1.04328290	      0.35689724	    -14.67287010	      7.37740258	     -3.10965464	    -13.09629930	     11.16121102	     -6.16457757	     -2.63444555	     20.21134694	      0.80416053	     -3.28216249	     -2.37459917	      2.37573797	      0.58264740	      3.87759283	      3.85026812	      4.89369821	      0.66707960
      1.16300000	      0.20029375	     -1.93378147	     -1.43706730	     -0.07920108	      1.04318812	      0.35698478	    -14.64198584	      7.26325863	     -3.15903689	    -14.00579693	     11.02861108	     -6.15493993	     -2.62603421	     20.06178710	      0.82960247	     -3.18001056	     -2.84771258	      2.24143547	      0.58619366	      3.87343536	      3.89784637	      4.82569722	      0.67467148
      1.16716667	      0.23129202	     -1.87521785	     -1.39578450	     -0.07315381	      1.04304869	      0.35669969	    -14.51160394	      7.09921327	     -3.60429386	    -14.96624797	     10.56146883	     -5.67367964	     -2.55939388	     19.98847256	      0.94393081	     -3.15066232	     -3.33133267	      1.47232300	      0.29458185	      3.84408716	      3.84199784	      4.78869048	      0.70279767
      1.17133333	      0.27109018	     -1.78990433	     -1.42007130	     -0.06706465	      1.04300947	      0.35645532	    -14.36089488	      6.87663943	     -3.97816190	    -16.00865509	     10.25893518	     -5.18002724	     -2.47047358	     19.85669314	      1.06719595	     -2.99773528	     -3.74561833	      0.88844395	     -0.14946133	      3.82235955	      3.80829543	      4.65425074	      0.74115576
      1.17550000	      0.29874551	     -1.68681734	     -1.53158958	     -0.06090656	      1.04305865	      0.35636566	    -14.17462394	      6.61214526	     -4.19729648	    -17.10806984	     10.02226243	     -4.98252544	     -2.42695664	     19.69648092	      1.17069823	     -2.84706915	     -4.11844149	      0.59530977	     -0.30229592	      3.81564569	      3.76763720	      4.58350320	      0.74720054
      1.17966667	      0.38084511	     -1.61691589	     -1.44907313	     -0.05487566	      1.04314015	      0.35599070	    -14.01954079	      6.41664720	     -4.64410815	    -18.20156463	      9.47721490	     -4.28800298	     -2.31234745	     19.55598843	      1.29873300	     -2.74689873	     -4.59254436	     -0.13847951	     -0.83690859	      3.79859967	      3.84633171	      4.45013822	      0.79913697
      1.18383333	      0.43338420	     -1.48067963	     -1.50550371	     -0.04866195	      1.04331106	      0.35553432	    -13.79508845	      6.07165442	     -5.04632438	    -19.40306926	      9.07997516	     -3.56607333	     -2.08817847	     19.33781810	      1.48340918	     -2.34036834	     -4.88885872	     -0.81651747	     -1.64104530	      3.78791259	      3.90615903	      4.36221668	      0.82072976
      1.18800000	      0.48475535	     -1.38007632	     -1.51879639	     -0.04261889	      1.04349934	      0.35520096	    -13.52940620	      5.79388408	     -5.41754624	    -20.64948773	      8.59148158	     -3.18031579	     -1.88792826	     19.19278051	      1.61326672	     -2.23091259	     -5.32664774	     -1.24540242	     -2.06251559	      3.78620056	      3.88113289	      4.23897306	      0.81981330
      1.19216667	      0.54919437	     -1.26893261	     -1.56831289	     -0.03660011	      1.04376405	      0.35499170	    -13.24033633	      5.49835355	     -5.72673024	    -21.97225996	      8.24884955	     -3.05662312	     -1.83669335	     19.03815739	      1.72652488	     -2.26234011	     -5.79154407	     -1.41943001	     -2.13140050	      3.78610463	      3.77274766	      4.10491610	      0.81969894
      1.19633333	      0.61383469	     -1.14008317	     -1.57838145	     -0.03051156	      1.04406744	      0.35461156	    -12.93225761	      5.16451688	     -6.09275647	    -23.27817384	      7.34802965	     -2.44101275	     -1.64027728	     18.87079474	      1.88242725	     -2.18645406	     -6.21806847	     -1.95791488	     -2.47548897	      3.78349723	      3.84892683	      3.95131202	      0.83500051
      1.20050000	      0.68487454	     -1.00662553	     -1.61209676	     -0.02452799	      1.04441372	      0.35431917	    -12.57883355	      4.82108911	     -6.44061259	    -24.70898688	      6.93884064	     -2.29900058	     -1.58279688	     18.71386032	      2.02500787	     -2.24210425	     -6.69623043	     -2.10658420	     -2.55782510	      3.78383465	      3.72335153	      3.81073497	      0.83337464
      1.20466667	      0.76415599	     -0.88453519	     -1.58406266	     -0.01858426	      1.04478492	      0.35392657	    -12.21273640	      4.49335630	     -6.80072166	    -26.10910070	      5.89996843	     -1.77090394	     -1.43016660	     18.56718100	      2.17235099	     -2.28974006	     -7.20067214	     -2.46677063	     -2.83090762	      3.78089528	      3.73473524	      3.58969508	      0.85003767
      1.20883333	      0.83714483	     -0.72305789	     -1.61067418	     -0.01263476	      1.04519808	      0.35355539	    -11.79746105	      4.09613554	     -7.12318677	    -27.60076248	      5.06682397	     -1.44231224	     -1.27381160	     18.39650460	      2.34996535	     -2.28539960	     -7.65403801	     -2.70720890	     -3.05821071	      3.77970691	      3.69739621	      3.40513839	      0.84967922
      1.21300000	      0.91604035	     -0.53312874	     -1.67452222	     -0.00664003	      1.04566400	      0.35314134	    -11.35908078	      3.63987041	     -7.39683747	    -29.12567430	      4.09361102	     -1.12970554	     -1.02457804	     18.18605720	      2.55759684	     -2.21417946	     -8.04815706	     -2.94790046	     -3.31364201	      3.77806352	      3.71698980	      3.25206998	      0.83372103
      1.21716667	      0.99078099	     -0.37102723	     -1.66021639	     -0.00083602	      1.04609268	      0.35275363	    -10.87764848	      3.24242672	     -7.70666883	    -30.70133867	      3.24732824	     -0.90549112	     -0.86586320	     18.04138728	      2.73861518	     -2.31145449	     -8.55572129	     -3.05631971	     -3.44456621	      3.77653737	      3.59654194	      2.99277438	      0.83323795
      1.22133333	      1.06285325	     -0.17446329	     -1.70547835	      0.00501175	      1.04655648	      0.35240256	    -10.36351354	      2.78457816	     -7.93366965	    -32.30166068	      2.17693554	     -0.68216057	     -0.68603020	     17.86032377	      2.94524254	     -2.36427205	     -8.99225052	     -3.14362277	     -3.54581826	      3.77357417	      3.56024673	      2.76743832	      0.82385069
